<svg xmlns="http://www.w3.org/2000/svg" xmlns:xlink="http://www.w3.org/1999/xlink" version="1.1" id="Laag_1" x="0px" y="0px" viewBox="0 0 595.28 281.28" style="enable-background:new 0 0 595.28 281.28;" xml:space="preserve">
<style type="text/css">
	.st0{fill:#89C50F;}
</style>
<g>
	<path class="st0" d="M142.39,242.74v12.32h-3.63v-33.43h11.65c7.5,0,12.23,4.16,12.23,10.56c0,6.45-4.73,10.55-12.23,10.55H142.39z    M142.39,225.06v14.28h8.55c4.78,0,8.07-2.29,8.07-7.16c0-4.63-3.2-7.12-8.07-7.12H142.39z"/>
	<path class="st0" d="M180.13,255.06v-2.58c-1.91,2.1-4.44,3.1-7.21,3.1c-4.44,0-7.93-2.48-7.93-7.12c0-4.58,3.44-7.12,8.5-7.12   c3.44,0,6.54,1.19,6.54,1.15v-2.58c0-3.73-2.48-5.54-6.11-5.54c-3.58,0-5.64,2.77-5.64,2.82l-2.44-2.24   c-0.05,0,2.91-3.87,8.12-3.87c5.78,0,9.6,2.82,9.6,9.07v14.9H180.13z M180.03,248.66v-2.96c0,0.05-3.01-1.15-6.35-1.15   c-3.49,0-5.16,1.77-5.16,3.92c0,2.48,1.86,3.87,4.63,3.87C175.83,252.34,178.26,251.05,180.03,248.66z"/>
	<path class="st0" d="M203.05,234.76c0,0-0.38-0.05-0.81-0.05c-5.49,0-7.79,2.72-7.79,10.36v9.98h-3.53v-23.4h3.44v3.1   c2.1-2.63,4.3-3.44,7.64-3.44c0.19,0,0.53,0,1.05,0.05V234.76z"/>
	<path class="st0" d="M209.12,248.18V234.9h-3.82v-3.25h3.82v-6.54h3.53v6.54h5.44v3.25h-5.44v12.75c0,2.87,0.62,4.25,3.58,4.25   c0.53,0,1.86-0.05,1.86-0.05v3.2c0,0-0.96,0.1-2.2,0.1C211.46,255.15,209.12,253.34,209.12,248.18z"/>
	<path class="st0" d="M242.08,231.08c6.78,0,11.84,5.54,11.84,12.27s-5.06,12.23-11.84,12.23c-6.73,0-11.75-5.49-11.75-12.23   S235.34,231.08,242.08,231.08z M242.08,252.29c4.82,0,8.17-3.87,8.17-8.93s-3.34-8.93-8.17-8.93c-4.78,0-8.12,3.87-8.12,8.93   S237.3,252.29,242.08,252.29z"/>
	<path class="st0" d="M269.35,221.1v3.2h-1.24c-3.58,0-4.73,1.67-4.73,5.06v2.29h5.44v3.25h-5.44v20.15h-3.53V234.9h-3.82v-3.25   h3.82v-2.29c0-5.92,2.91-8.31,8.21-8.31C268.88,221.05,269.35,221.1,269.35,221.1z"/>
	<path class="st0" d="M288.27,245.08c0.38,2.44,2.24,4.3,5.25,4.3c2.44,0,4.3-0.91,5.73-2.72l4.49,4.2   c-2.05,2.58-5.01,4.73-10.03,4.73c-7.02,0-12.32-4.73-12.32-12.08c0-7.07,4.73-12.42,11.51-12.42c7.55,0,11.27,6.07,11.27,11.99   c0,0.81-0.05,2.01-0.05,2.01H288.27z M288.6,240.54h8.41c-0.14-1.96-1.72-3.49-3.96-3.49C290.51,237.05,289.03,238.63,288.6,240.54   z"/>
	<path class="st0" d="M315.59,255.06h-6.78v-23.4h6.69v1.62c1.29-1.24,3.15-2.2,5.54-2.2c5.73,0,9.55,3.73,9.55,10.36v13.61h-6.78   v-13.09c0-2.48-1.19-4.58-3.92-4.58c-3.2,0-4.3,2.39-4.3,5.97V255.06z"/>
	<path class="st0" d="M350.7,237.91h-1.05c-3.77,0-6.5,2.39-6.5,7.35v9.79h-6.78v-23.4h6.69v2.1c1.29-1.53,3.44-2.44,5.83-2.44   c0.81,0,1.15,0,1.81,0.05V237.91z"/>
	<path class="st0" d="M358.87,245.08c0.38,2.44,2.24,4.3,5.25,4.3c2.44,0,4.3-0.91,5.73-2.72l4.49,4.2   c-2.05,2.58-5.01,4.73-10.03,4.73c-7.02,0-12.32-4.73-12.32-12.08c0-7.07,4.73-12.42,11.51-12.42c7.55,0,11.27,6.07,11.27,11.99   c0,0.81-0.05,2.01-0.05,2.01H358.87z M359.2,240.54h8.41c-0.14-1.96-1.72-3.49-3.96-3.49C361.11,237.05,359.63,238.63,359.2,240.54   z"/>
	<path class="st0" d="M390.34,231.08c2.63,0,5.16,0.91,6.5,2.15v-1.58h6.83v23.4h-6.83v-1.72c-1.34,1.1-3.44,2.24-6.5,2.24   c-6.78,0-12.27-5.21-12.27-12.23S383.56,231.08,390.34,231.08z M390.87,249.23c3.73,0,5.97-2.91,5.97-6.02   c0-3.15-2.24-5.83-5.97-5.83c-3.34,0-5.78,2.67-5.78,5.83C385.09,246.32,387.52,249.23,390.87,249.23z"/>
	<path class="st0" d="M430.99,250.62c-2.39,3.15-5.73,4.97-10.27,4.97c-7.02,0-12.37-5.21-12.37-12.23s5.35-12.27,12.37-12.27   c4.44,0,7.31,1.91,9.79,4.68l-4.58,4.44c-1.34-1.62-2.82-2.72-4.97-2.72c-3.2,0-5.68,2.44-5.68,5.87s2.48,5.87,5.68,5.87   c2.34,0,3.96-1.15,5.44-3.06L430.99,250.62z"/>
	<path class="st0" d="M442.12,255.06h-6.78v-33.43h6.73v11.37c1.05-0.96,3.1-1.91,5.49-1.91c5.73,0,9.55,3.73,9.55,10.36v13.61   h-6.78v-13.09c0-2.48-1.19-4.58-3.92-4.58c-3.2,0-4.3,2.39-4.3,5.97V255.06z"/>
</g>
<g>
	<g>
		<path class="st0" d="M289.49,28.72l82.77,66.38V28.72H289.49z M253.37,30.77c-3.82,0.61-7.72,1.71-11.61,3.21    c-9.97,4.03-17.76,10.04-23.29,18.1c-5.53,7.92-8.33,17.35-8.33,28.07c0,3.89,0.55,8.06,1.71,12.57c1.16,4.44,2.8,8.47,4.92,12.09    c4.23,7.31,10.18,13.32,17.14,19.12c2.73,2.25,5.46,4.44,8.2,6.62c8.33,6.69,16.6,13.32,24.93,20.01    c8.88,7.1,17.76,14.21,26.64,21.38c7.38,5.87,14.68,11.82,22.06,17.69c2.87,2.32,5.81,4.64,8.67,6.97    c4.3-0.14,7.99-0.34,11.06-0.61c2.66-0.27,5.4-0.75,8.06-1.37c1.91-0.41,4.23-1.23,6.9-2.32c9.77-3.96,17.48-10.04,23.08-18.3    c5.67-8.2,9.08-17.48,9.08-27.66c0-8.26-1.57-16.73-5.33-23.43c-3.69-6.62-9.7-13.32-18.23-20.08L268.6,29.95    C262.52,30.02,257.12,30.22,253.37,30.77 M211.09,196.52h91.04l-91.04-73.01V196.52z"/>
		<path class="st0" d="M289.49,28.72l82.77,66.38V28.72H289.49z M253.37,30.77c-3.82,0.61-7.72,1.71-11.61,3.21    c-9.97,4.03-17.76,10.04-23.29,18.1c-5.53,7.92-8.33,17.35-8.33,28.07c0,3.89,0.55,8.06,1.71,12.57c1.16,4.44,2.8,8.47,4.92,12.09    c4.23,7.31,10.18,13.32,17.14,19.12c2.73,2.25,5.46,4.44,8.2,6.62c8.33,6.69,16.6,13.32,24.93,20.01    c8.88,7.1,17.76,14.21,26.64,21.38c7.38,5.87,14.68,11.82,22.06,17.69c2.87,2.32,5.81,4.64,8.67,6.97    c4.3-0.14,7.99-0.34,11.06-0.61c2.66-0.27,5.4-0.75,8.06-1.37c1.91-0.41,4.23-1.23,6.9-2.32c9.77-3.96,17.48-10.04,23.08-18.3    c5.67-8.2,9.08-17.48,9.08-27.66c0-8.26-1.57-16.73-5.33-23.43c-3.69-6.62-9.7-13.32-18.23-20.08L268.6,29.95    C262.52,30.02,257.12,30.22,253.37,30.77 M211.09,196.52h91.04l-91.04-73.01V196.52z"/>
	</g>
	<polygon class="st0" points="398.7,196.52 476.35,196.52 398.7,134.44  "/>
	<polygon class="st0" points="398.7,196.52 476.35,196.52 398.7,134.44  "/>
	<g>
		<path class="st0" d="M398.9,28.72h-0.2v87.69l98.76,79.15c10.38-1.57,20.28-5.05,29.57-10.52c12.98-7.51,23.36-17.83,31.21-30.94    c7.79-13.04,11.68-27.11,11.68-42.14c0-11.88-2.25-22.95-6.83-33.19c-4.37-10.18-10.72-19.19-19.05-26.91    c-8.2-7.79-17.83-13.73-28.75-17.83c-10.86-4.1-22.67-5.46-35.45-5.46L398.9,28.72z"/>
	</g>
	<polygon class="st0" points="24.92,196.52 103.8,196.52 24.92,133.21  "/>
	<g>
		<path class="st0" d="M24.92,28.58v86.46l99.98,80.32c10.38-1.57,19.05-4.78,28.34-10.24c12.98-7.51,23.36-17.83,31.21-30.94    c7.79-13.04,11.68-27.11,11.68-42.14c0-11.88-2.25-22.95-6.83-33.19c-4.37-10.31-10.72-19.26-19.05-27.05    c-8.2-7.72-17.83-13.66-28.75-17.76c-10.86-4.1-22.67-5.46-35.45-5.46H24.92z"/>
	</g>
</g>
<a xmlns=""/></svg>