<svg xmlns="http://www.w3.org/2000/svg" width="200" height="39" viewBox="0 0 200 39" fill="none">
            <path fill="#00A0AA" fill-opacity=".5" fill-rule="evenodd" d="M25 25.685v8.144c0 .25.261.415.494.315 5.567-2.395 9.47-7.884 9.47-14.255 0-8.983-7.757-16.21-17.003-15.49-7.791.606-14.005 6.899-14.44 14.605-.38 6.745 3.623 12.635 9.447 15.14a.35.35 0 0 0 .494-.315v-8.276c0-3.108 2.536-5.644 5.671-5.695C22.36 19.805 25 22.498 25 25.685ZM.023 18.942C.502 9.278 8.4 1.44 18.183.924 29.26.341 38.461 9.074 38.461 19.89c0 8.488-5.667 15.693-13.462 18.12a19.104 19.104 0 0 1-1.767.456 1.436 1.436 0 0 1-1.731-1.398V25.553c0-1.288-1.104-2.326-2.427-2.238-1.206.079-2.117 1.123-2.117 2.317v11.435a1.436 1.436 0 0 1-1.75 1.394 19.051 19.051 0 0 1-1.746-.453C5.381 35.492-.417 27.838.023 18.942Zm19.207-1.643c2.414 0 4.37-1.933 4.37-4.317 0-2.384-1.956-4.316-4.37-4.316s-4.37 1.932-4.37 4.316 1.956 4.317 4.37 4.317Z" clip-rule="evenodd"></path><path fill="#161714" fill-rule="evenodd" d="M118.851 12.332c-.269-.66-.671-.88-1.388-.88h-.449v-3.65h2.241c2.015 0 2.777.484 3.449 2.244l4.883 13.18c.448 1.23 1.255 1.23 1.703 0l4.838-13.18c.672-1.76 1.478-2.243 3.45-2.243h2.105v3.65h-.448c-.762 0-1.21.22-1.478.88l-6.899 17.72h-5.018l-6.989-17.72Zm52.865-4.53v3.767h-6.921v10.17c0 4.44 3.136 5.013 4.794 5.013.628 0 1.03-.088 1.03-.088v3.781s-.582.088-1.522.088c-2.868 0-8.647-.88-8.647-8.31V11.569h-3.913V7.803h15.179Zm14.108 23.788c-.852 1.98-2.24 3.21-3.988 3.21-1.926 0-3.315-1.539-3.315-1.583l-1.792 3.08s1.971 2.2 5.331 2.2c3.181 0 5.914-1.804 7.302-5.236l8.622-20.927c.313-.704.717-.88 1.433-.88H200V7.803h-2.599c-1.836 0-2.643.484-3.315 2.243l-4.689 13.06c-.449 1.144-1.21 1.144-1.658 0l-5.166-13.06c-.717-1.76-1.389-2.243-3.226-2.243h-2.553v3.651h.538c.716 0 1.119.176 1.433.88l7.75 17.641-.691 1.615Zm-38.411-19.125c0-.666-.364-.977-1.001-.977h-1.867V7.803h4.326c2.049 0 2.915.843 2.915 2.842l.018 19.625h-1.475c-2.05 0-2.916-.843-2.916-2.841V12.465Zm-41.805-.977c.637 0 1.002.311 1.002.977v14.964c0 1.998.864 2.841 2.914 2.841H111l-.019-19.625c0-1.999-.865-2.842-2.914-2.842h-4.327v3.685h1.868Z" clip-rule="evenodd"></path><path fill="#00A0AA" fill-rule="evenodd" d="M70.077 7.442c2.884 0 8.527 1.183 8.527 4.948v2.458h-3.772v-1.245c0-1.618-2.695-2.364-4.66-2.364-4.025 0-7.195 2.831-7.195 7.434 0 4.325 3.233 7.81 7.322 7.81 4.247 0 6.814-2.925 6.814-2.925l2.188 2.925s-3.265 3.796-9.065 3.796c-6.878 0-11.57-5.072-11.57-11.606 0-6.376 4.882-11.231 11.41-11.231Zm28.044.36v3.767h-6.92v9.866c0 4.442 3.136 5.013 4.794 5.013.627 0 1.03-.088 1.03-.088v3.782s-.582.087-1.523.087c-2.867 0-8.647-.878-8.647-8.31v-10.35h-3.912V7.803H98.12Zm-50.1 3.686c.638 0 1.002.311 1.002.977v14.964c0 1.998.865 2.841 2.915 2.841h1.476l-.019-19.625c0-1.999-.865-2.842-2.914-2.842h-4.327v3.685h1.867Z" clip-rule="evenodd"></path>
        </svg>