<svg xmlns="http://www.w3.org/2000/svg" width="103" height="22" viewBox="0 0 103 22" fill="none">
<path d="M92.2031 21.1981V6.25813H94.6231L94.6631 8.65812L94.2431 8.47813C94.3231 8.06479 94.5498 7.67812 94.9231 7.31812C95.2965 6.94479 95.7498 6.64479 96.2831 6.41812C96.8298 6.19146 97.3965 6.07812 97.9831 6.07812C98.9165 6.07812 99.7431 6.31146 100.463 6.77812C101.196 7.24479 101.77 7.88479 102.183 8.69812C102.61 9.51146 102.823 10.4515 102.823 11.5181C102.823 12.5715 102.61 13.5115 102.183 14.3381C101.77 15.1515 101.196 15.7981 100.463 16.2781C99.7431 16.7448 98.9298 16.9781 98.0231 16.9781C97.4098 16.9781 96.8165 16.8581 96.2431 16.6181C95.6831 16.3781 95.2031 16.0648 94.8031 15.6781C94.4165 15.2915 94.1765 14.8848 94.0831 14.4581L94.6831 14.1781V21.1981H92.2031ZM97.5231 14.7981C98.0831 14.7981 98.5831 14.6581 99.0231 14.3781C99.4631 14.0981 99.8031 13.7115 100.043 13.2181C100.296 12.7248 100.423 12.1581 100.423 11.5181C100.423 10.8781 100.303 10.3181 100.063 9.83813C99.8231 9.34479 99.4831 8.95812 99.0431 8.67812C98.6031 8.39812 98.0965 8.25813 97.5231 8.25813C96.9365 8.25813 96.4231 8.39812 95.9831 8.67812C95.5565 8.94479 95.2165 9.32479 94.9631 9.81812C94.7098 10.3115 94.5831 10.8781 94.5831 11.5181C94.5831 12.1581 94.7098 12.7248 94.9631 13.2181C95.2165 13.7115 95.5565 14.0981 95.9831 14.3781C96.4231 14.6581 96.9365 14.7981 97.5231 14.7981Z" fill="#1b1b1b"/>
<path d="M83.26 16.9213C82.1533 16.9213 81.1667 16.6879 80.3 16.2213C79.4333 15.7413 78.7467 15.0879 78.24 14.2613C77.7467 13.4213 77.5 12.4746 77.5 11.4213V2.78125H80.12V11.2413C80.12 11.8679 80.26 12.4279 80.54 12.9213C80.8333 13.4012 81.22 13.7879 81.7 14.0813C82.18 14.3746 82.7 14.5213 83.26 14.5213C83.8733 14.5213 84.4267 14.3746 84.92 14.0813C85.4133 13.7879 85.8 13.4012 86.08 12.9213C86.3733 12.4279 86.52 11.8679 86.52 11.2413V2.78125H89.04V11.4213C89.04 12.4746 88.7867 13.4213 88.28 14.2613C87.7867 15.0879 87.1067 15.7413 86.24 16.2213C85.3733 16.6879 84.38 16.9213 83.26 16.9213Z" fill="#1b1b1b"/>
<path d="M71.8477 16.8V2H74.3277V16.8H71.8477Z" fill="#1b1b1b"/>
<path d="M65.0497 16.9995C63.943 16.9995 62.963 16.7662 62.1097 16.2995C61.2697 15.8329 60.6097 15.1995 60.1297 14.3995C59.663 13.5862 59.4297 12.6595 59.4297 11.6195C59.4297 10.7929 59.563 10.0395 59.8297 9.35953C60.0964 8.67953 60.463 8.09286 60.9297 7.59953C61.4097 7.09286 61.9764 6.7062 62.6297 6.43953C63.2964 6.15953 64.023 6.01953 64.8097 6.01953C65.503 6.01953 66.1497 6.15286 66.7497 6.41953C67.3497 6.6862 67.8697 7.05287 68.3097 7.51953C68.7497 7.97287 69.083 8.51953 69.3097 9.15953C69.5497 9.7862 69.663 10.4729 69.6497 11.2195L69.6297 12.0795H61.0897L60.6297 10.3995H67.5697L67.2497 10.7395V10.2995C67.2097 9.8862 67.0764 9.5262 66.8497 9.21953C66.623 8.89953 66.3297 8.65287 65.9697 8.47953C65.623 8.29287 65.2364 8.19953 64.8097 8.19953C64.1564 8.19953 63.603 8.3262 63.1497 8.57953C62.7097 8.83286 62.3764 9.19953 62.1497 9.67953C61.923 10.1462 61.8097 10.7329 61.8097 11.4395C61.8097 12.1195 61.9497 12.7129 62.2297 13.2195C62.523 13.7262 62.9297 14.1195 63.4497 14.3995C63.983 14.6662 64.603 14.7995 65.3097 14.7995C65.803 14.7995 66.2564 14.7195 66.6697 14.5595C67.083 14.3995 67.5297 14.1129 68.0097 13.6995L69.2297 15.3995C68.8697 15.7329 68.4564 16.0195 67.9897 16.2595C67.5364 16.4862 67.0564 16.6662 66.5497 16.7995C66.043 16.9329 65.543 16.9995 65.0497 16.9995Z" fill="#1b1b1b"/>
<path d="M52.1041 16.8017L47.6641 6.26172H50.3441L53.3441 14.1417L52.8241 14.2817L55.9841 6.26172H58.6041L53.9441 16.8017H52.1041Z" fill="#1b1b1b"/>
<path d="M42.1434 16.9995C41.0368 16.9995 40.0568 16.7662 39.2034 16.2995C38.3634 15.8329 37.7034 15.1995 37.2234 14.3995C36.7568 13.5862 36.5234 12.6595 36.5234 11.6195C36.5234 10.7929 36.6568 10.0395 36.9234 9.35953C37.1901 8.67953 37.5568 8.09286 38.0234 7.59953C38.5034 7.09286 39.0701 6.7062 39.7234 6.43953C40.3901 6.15953 41.1168 6.01953 41.9034 6.01953C42.5968 6.01953 43.2434 6.15286 43.8434 6.41953C44.4434 6.6862 44.9634 7.05287 45.4034 7.51953C45.8434 7.97287 46.1768 8.51953 46.4034 9.15953C46.6434 9.7862 46.7568 10.4729 46.7434 11.2195L46.7234 12.0795H38.1834L37.7234 10.3995H44.6634L44.3434 10.7395V10.2995C44.3034 9.8862 44.1701 9.5262 43.9434 9.21953C43.7168 8.89953 43.4234 8.65287 43.0634 8.47953C42.7168 8.29287 42.3301 8.19953 41.9034 8.19953C41.2501 8.19953 40.6968 8.3262 40.2434 8.57953C39.8034 8.83286 39.4701 9.19953 39.2434 9.67953C39.0168 10.1462 38.9034 10.7329 38.9034 11.4395C38.9034 12.1195 39.0434 12.7129 39.3234 13.2195C39.6168 13.7262 40.0234 14.1195 40.5434 14.3995C41.0768 14.6662 41.6968 14.7995 42.4034 14.7995C42.8968 14.7995 43.3501 14.7195 43.7634 14.5595C44.1768 14.3995 44.6234 14.1129 45.1034 13.6995L46.3234 15.3995C45.9634 15.7329 45.5501 16.0195 45.0834 16.2595C44.6301 16.4862 44.1501 16.6662 43.6434 16.7995C43.1368 16.9329 42.6368 16.9995 42.1434 16.9995Z" fill="#1b1b1b"/>
<path d="M26 16.8008V2.80078H28.6V14.4008H35.06V16.8008H26Z" fill="#1b1b1b"/>
<path d="M15.166 0.211182C15.4475 -0.0704924 15.9032 -0.0705179 16.1846 0.211182L19.7891 3.82153C19.9269 3.9596 20 4.14445 20 4.33228C20 4.42526 19.9823 4.51935 19.9453 4.60864C19.8338 4.87845 19.5708 5.05389 19.2793 5.05396H17.4775V18.0002H13.873V5.05396H12.0713C11.7798 5.05393 11.5169 4.87843 11.4053 4.60864C11.2938 4.33889 11.3554 4.02798 11.5615 3.82153L15.166 0.211182ZM1.8916 10.6223C2.93654 10.6223 3.78416 11.469 3.78418 12.5139V17.9973H0V12.5139C1.44935e-05 11.4691 0.846867 10.6226 1.8916 10.6223ZM8.29883 6.08325C9.29873 6.08348 10.1093 6.89387 10.1094 7.8938V17.9973H6.4873V7.8938C6.48742 6.89373 7.29873 6.08325 8.29883 6.08325Z" fill="#D4EC8E"/>
</svg>